<?xml version="1.0" standalone="no"?>
<!DOCTYPE svg PUBLIC "-//W3C//DTD SVG 20010904//EN"
 "http://www.w3.org/TR/2001/REC-SVG-20010904/DTD/svg10.dtd">
<svg version="1.0" xmlns="http://www.w3.org/2000/svg"
 width="800.000000pt" height="800.000000pt" viewBox="0 0 800.000000 800.000000"
 preserveAspectRatio="xMidYMid meet">

<g transform="translate(0.000000,800.000000) scale(0.100000,-0.100000)"
fill="#000000" stroke="none">
<path d="M3955 7331 c-79 -14 -153 -72 -186 -146 -17 -36 -19 -72 -19 -367 l0
-327 -57 -6 c-94 -12 -288 -53 -402 -86 -312 -90 -629 -257 -876 -462 -94 -78
-274 -257 -340 -337 -303 -371 -499 -815 -556 -1257 l-11 -92 -338 -3 -338 -3
-54 -38 c-38 -26 -64 -54 -84 -90 -71 -132 -6 -303 135 -353 26 -10 122 -13
358 -14 l322 0 6 -57 c30 -260 117 -548 245 -808 357 -724 1066 -1242 1861
-1359 59 -9 112 -16 118 -16 8 0 11 -92 11 -325 0 -262 3 -332 14 -360 41 -98
131 -159 231 -158 33 0 79 9 103 18 52 21 124 99 140 153 8 27 12 140 12 356
0 246 3 316 13 316 6 0 57 7 112 15 507 77 976 309 1354 671 345 331 589 751
700 1204 24 99 61 308 61 344 0 3 143 6 318 6 184 0 332 4 354 10 50 14 132
90 153 142 50 124 -9 273 -130 329 -36 17 -70 19 -367 19 -181 0 -328 3 -328
8 0 27 -44 264 -64 347 -102 415 -327 820 -631 1134 -290 300 -637 517 -1030
644 -111 36 -351 89 -457 102 l-58 6 0 316 c0 215 -4 328 -12 355 -6 22 -31
62 -55 88 -61 68 -141 96 -228 81z m201 -1341 c800 -64 1480 -597 1734 -1356
74 -222 102 -405 102 -654 0 -312 -66 -588 -209 -875 -440 -884 -1474 -1311
-2413 -998 -770 256 -1296 934 -1361 1752 -67 852 435 1661 1230 1986 305 124
597 170 917 145z"/>
<path d="M3890 5329 c-539 -45 -997 -408 -1164 -922 -62 -190 -78 -436 -42
-637 99 -552 525 -980 1081 -1086 123 -24 339 -23 465 1 283 53 511 173 710
374 116 117 187 213 254 347 191 379 185 832 -15 1215 -172 328 -489 580 -843
669 -100 25 -148 32 -306 44 -25 2 -88 0 -140 -5z"/>
</g>
</svg>
